<svg xmlns="http://www.w3.org/2000/svg" xmlns:xlink="http://www.w3.org/1999/xlink" width="500"
  zoomAndPan="magnify" viewBox="0 0 375 374.999991" height="500" preserveAspectRatio="xMidYMid meet"
  version="1.0">
  <g clip-path="url(#fb2eaa6d31)">
    <path fill="#ffffff"
      d="M 137.703125 244.957031 C 137.703125 244.957031 135.863281 221.894531 146.230469 210.863281 C 156.59375 199.832031 184.332031 174.097656 186.675781 153.039062 C 186.675781 153.039062 193.359375 166.070312 190.019531 175.433594 C 190.019531 175.433594 198.714844 164.402344 197.707031 148.691406 C 197.707031 148.691406 210.074219 112.589844 195.367188 79.835938 C 195.367188 79.835938 258.878906 132.648438 221.441406 196.160156 C 221.441406 196.160156 235.808594 187.800781 242.164062 174.761719 C 242.164062 174.761719 231.46875 217.546875 190.019531 239.273438 C 190.019531 239.273438 203.558594 236.765625 212.585938 230.75 C 212.585938 230.75 193.03125 252.640625 159.605469 258.996094 C 126.175781 265.34375 134.535156 295.097656 134.535156 295.097656 C 134.535156 295.097656 116.148438 272.699219 141.554688 252.3125 C 166.960938 231.921875 207.070312 209.191406 213.753906 176.4375 C 213.753906 176.4375 204.398438 200.503906 177.988281 218.554688 C 151.578125 236.601562 137.703125 244.957031 137.703125 244.957031 "
      fill-opacity="1" fill-rule="evenodd" />
  </g>
</svg>